<?xml version="1.0" standalone="no"?>
<!DOCTYPE svg PUBLIC "-//W3C//DTD SVG 20010904//EN"
 "http://www.w3.org/TR/2001/REC-SVG-20010904/DTD/svg10.dtd">
<svg version="1.0" xmlns="http://www.w3.org/2000/svg"
 width="234.000000pt" height="234.000000pt" viewBox="0 0 234.000000 234.000000"
 preserveAspectRatio="xMidYMid meet">
<metadata>
Created by potrace 1.11, written by Peter Selinger 2001-2013
</metadata>
<g transform="translate(0.000000,234.000000) scale(0.100000,-0.100000)"
fill="#000000" stroke="none">
<path d="M1172 2289 c-18 -12 -44 -41 -58 -66 -24 -39 -28 -42 -43 -30 -9 8
-27 20 -40 27 -24 12 -24 12 -18 -29 4 -35 3 -40 -8 -31 -10 8 -19 9 -32 1
-10 -6 -12 -11 -5 -11 24 0 12 -30 -13 -30 -25 0 -34 -14 -16 -24 5 -3 -4 -20
-20 -38 -23 -23 -33 -28 -41 -20 -9 9 -9 12 0 12 9 0 7 8 -5 26 -17 26 -17 26
-32 5 -12 -15 -20 -18 -31 -11 -27 17 -31 11 -16 -25 15 -34 14 -35 -16 -56
-22 -16 -26 -24 -17 -30 7 -4 18 -4 24 1 17 14 39 -5 32 -29 -4 -18 -2 -19 14
-10 22 11 25 0 7 -20 -11 -11 -9 -13 9 -8 13 3 25 1 28 -4 3 -4 -6 -11 -20
-15 -13 -3 -22 -10 -19 -15 3 -5 -20 -20 -51 -35 -68 -30 -67 -35 13 -50 36
-7 38 -11 17 -41 -13 -18 -13 -22 0 -33 11 -9 15 -9 15 -1 0 6 9 11 20 11 27
0 25 -11 -8 -43 -30 -29 -42 -27 -42 7 0 19 -1 19 -21 -2 l-20 -22 -26 20
c-28 22 -58 26 -68 10 -10 -16 -35 -11 -35 7 0 15 -2 15 -19 -1 -18 -17 -21
-17 -47 1 -31 20 -30 25 -7 -49 4 -15 3 -19 -5 -14 -8 5 -12 0 -12 -13 0 -12
-3 -21 -7 -21 -5 1 -35 25 -68 55 -33 31 -68 58 -77 61 -10 3 -18 10 -18 15 0
5 -3 8 -7 7 -14 -2 -47 14 -71 35 -34 31 -26 11 14 -39 20 -24 33 -44 29 -44
-4 0 -3 -6 2 -12 6 -7 9 -28 8 -46 -2 -17 1 -35 6 -38 5 -3 7 -10 4 -15 -4 -5
-2 -9 3 -9 5 0 15 -21 22 -47 17 -63 60 -143 77 -143 7 0 13 -8 13 -19 0 -13
-16 -25 -58 -41 -31 -13 -64 -29 -72 -35 -8 -7 -26 -16 -40 -20 -42 -12 -150
-67 -150 -76 0 -5 14 -9 30 -9 17 0 30 5 30 10 0 6 7 10 15 10 9 0 12 -6 9
-15 -5 -11 1 -15 20 -15 15 0 54 -12 89 -26 34 -14 67 -27 74 -28 7 -1 16 -5
19 -9 4 -4 26 -7 48 -7 39 0 40 0 18 -15 -12 -9 -46 -29 -76 -45 -31 -16 -68
-40 -83 -54 -15 -14 -33 -26 -40 -26 -7 0 -13 -4 -13 -10 0 -5 7 -10 15 -10 8
0 15 -7 15 -16 0 -8 -5 -12 -10 -9 -7 4 -9 -13 -6 -52 10 -113 8 -183 -6 -193
-3 -3 -8 -21 -10 -40 -1 -19 -7 -38 -12 -41 -4 -4 -4 -15 2 -25 10 -18 11 -18
18 1 9 22 26 44 69 90 25 27 146 85 190 91 6 0 16 2 23 2 6 1 12 9 12 17 0 8
5 15 10 15 6 0 10 7 10 15 0 8 4 15 8 15 5 0 16 16 25 36 15 31 19 33 32 20 8
-8 15 -20 15 -27 0 -8 6 -7 18 4 10 10 21 17 24 17 10 0 -10 -71 -24 -88 -8
-9 -27 -43 -42 -75 -16 -31 -33 -60 -37 -63 -5 -3 -9 -12 -9 -20 0 -11 16 -14
75 -14 74 0 75 0 64 -21 -14 -27 -6 -108 12 -120 8 -5 25 -7 39 -4 14 2 43 7
65 10 22 3 52 8 68 10 24 5 27 2 27 -20 0 -14 -7 -36 -15 -49 -9 -13 -18 -33
-20 -45 -3 -17 1 -21 20 -21 32 0 38 -25 31 -118 -7 -84 2 -109 54 -150 32
-25 106 -38 124 -22 9 7 16 7 20 1 8 -12 105 39 118 62 5 9 11 33 13 54 8 66
14 107 25 153 5 25 12 62 15 83 5 28 10 37 21 33 8 -3 14 -1 14 4 0 6 9 10 20
10 25 0 25 2 0 42 -25 41 -25 44 3 51 105 27 119 33 106 48 -29 30 -59 79 -59
93 0 9 7 34 16 56 17 43 41 52 68 24 9 -8 16 -12 16 -8 0 5 12 -11 27 -34 15
-23 33 -42 41 -42 7 0 10 -4 7 -10 -3 -5 -1 -10 5 -10 6 0 9 -3 7 -7 -3 -5 1
-14 9 -21 11 -10 14 -10 14 2 0 20 21 25 85 20 91 -8 101 -15 143 -101 21 -43
39 -81 40 -86 1 -4 6 -15 12 -25 8 -13 9 -5 6 33 -2 28 -7 61 -11 75 -3 14 -8
36 -11 50 -3 14 -9 26 -15 28 -5 2 -5 11 1 22 7 14 6 21 -4 27 -13 8 -34 64
-34 93 0 8 -2 30 -5 48 -7 52 1 70 29 64 38 -7 28 6 -21 28 -52 24 -125 86
-125 106 0 8 10 13 23 13 57 -3 177 25 177 41 0 3 30 6 68 8 37 2 68 8 70 13
2 5 12 5 23 -1 13 -7 19 -7 19 0 0 5 17 10 38 10 l37 1 -60 25 c-33 14 -116
51 -185 82 -68 31 -127 56 -131 55 -4 -1 -13 4 -19 12 -7 8 -21 15 -31 15 -11
0 -19 3 -19 6 0 4 31 40 70 80 38 41 69 77 68 82 -1 4 4 20 10 35 7 16 12 33
12 39 0 11 31 54 68 94 12 14 22 27 22 29 0 11 -29 4 -40 -10 -7 -8 -21 -15
-30 -15 -10 0 -20 -3 -22 -7 -6 -15 -113 -63 -138 -63 -24 1 -24 1 -5 12 19
11 17 13 -17 23 -34 9 -35 11 -22 29 13 19 15 19 33 2 26 -23 43 -13 31 19 -7
19 -6 24 8 23 28 0 82 9 89 16 10 9 -3 18 -29 20 -30 1 -34 28 -7 52 20 18 27
50 9 39 -6 -4 -22 -9 -36 -11 -15 -3 -32 -6 -38 -7 -6 -1 -10 6 -8 16 2 10 -3
17 -14 17 -10 0 -14 -3 -11 -6 4 -4 -3 -15 -15 -26 -19 -16 -23 -17 -30 -4 -7
13 -12 13 -37 -2 -28 -15 -32 -15 -66 1 l-36 17 20 26 c12 15 21 33 21 40 0
16 -36 19 -45 4 -10 -17 -25 -11 -25 9 0 23 -16 36 -25 21 -3 -5 -17 -10 -30
-10 -17 0 -22 5 -20 18 4 27 -4 33 -26 19 -16 -10 -21 -9 -29 3 -7 12 -1 18
32 29 l41 14 -37 15 c-29 11 -34 17 -25 28 9 11 7 14 -14 14 -13 0 -31 8 -38
17 -13 15 -12 16 9 11 12 -4 22 -2 22 4 0 5 4 7 8 4 4 -2 14 -1 22 4 12 8 8
12 -16 22 l-32 12 21 43 c11 23 17 46 13 50 -4 4 -10 3 -14 -2 -12 -17 -52
-36 -62 -30 -6 4 -10 13 -10 22 0 13 -3 13 -15 3 -8 -7 -15 -18 -15 -25 0 -19
-27 -26 -40 -9 -7 8 -8 14 -2 14 9 0 35 51 33 67 -1 10 -23 11 -36 2 -21 -14
-65 -16 -76 -3 -6 8 -8 14 -3 14 5 0 10 18 11 40 0 22 0 40 0 40 -1 0 -17 -10
-35 -21z"/>
</g>
</svg>
